{"title":"Jackass 3D 2010 Cam H264 Feel-Free ","uid":5910295,"size":637194384,"categoryP":"video","categoryS":"movies","magnet":"?xt=urn:btih:5f6ba5b5a0eff29c7a291506706af4dfc81c5905&amp;dn=Jackass+3D+2010+Cam+H264+Feel-Free+&amp;tr=udp%3A%2F%2Ftracker.openbittorrent.com%3A80&amp;tr=udp%3A%2F%2Fopen.demonii.com%3A1337&amp;tr=udp%3A%2F%2Ftracker.coppersurfer.tk%3A6969&amp;tr=udp%3A%2F%2Fexodus.desync.com%3A6969","seeders":3,"leechers":0,"uploader":"deffjam555","files":8,"time":1288025373,"description":"cover &lt;a href=&quot;\nhttp://img521.imageshack.us/img521/1014/17758108c6ba1867e60bf5a.jpg&quot; rel=&quot;nofollow&quot; target=&quot;_NEW&quot;&gt;\nhttp://img521.imageshack.us/img521/1014/17758108c6ba1867e60bf5a.jpg&lt;/a&gt;\nGenre:Documentary | Action | Comedy\nLanguage:English\nIMDb:http://www.imdb.com/title/tt1116184/\nSource:NoGrp.Thx\n\nGeneral\nComplete name :Jackass 3D 2010 Cam H264 Feel-Free\nFormat : MPEG-4\nFormat profile : Base Media\nCodec ID : isom\nFile size : 607 MiB\nDuration : 1h 32mn\nOverall bit rate : 920 Kbps\nVideo #2\nCodec ID : avc1\nCodec ID/Info : Advanced Video Coding\nDuration : 1h 32mn\nBit rate mode : Variable\nBit rate : 827 Kbps\nWidth : 640 pixels\nHeight : 352 pixels\nDisplay aspect ratio : 16:9\nFrame rate mode : Constant\nFrame rate : 29.970 fps\nOriginal frame rate : 29.000 fps\nResolution : 24 bits\nColorimetry : 4:2:0\nScan type : Progressive\nBits/(Pixel*Frame) : 0.122\nStream size : 546 MiB (90%)\nAudio #1\nID : 1\nFormat : AAC\nFormat/Info : Advanced Audio Codec\nFormat version : Version 4\nFormat profile : LC\nFormat settings, SBR : No\nCodec ID : 40\nDuration : 1h 32mn\nBit rate mode : Constant\nBit rate : 87.0 Kbps\nChannel(s) : 2 channels\nChannel positions : L R\nSampling rate : 48.0 KHz\nResolution : 16 bits\nStream size : 57.4 MiB (9%)\n\nPlot:\nJohnny Knoxville and company return for the third installment of their TV show spin-off, where dangerous stunts and explicit public displays rule.\n\nscreens &lt;a href=&quot;\nhttp://img186.imageshack.us/img186/4676/jackass3d2010camh264fee.jpg&quot; rel=&quot;nofollow&quot; target=&quot;_NEW&quot;&gt;\nhttp://img186.imageshack.us/img186/4676/jackass3d2010camh264fee.jpg&lt;/a&gt;\n &lt;a href=&quot;\nhttp://img688.imageshack.us/img688/4676/jackass3d2010camh264fee.jpg&quot; rel=&quot;nofollow&quot; target=&quot;_NEW&quot;&gt;\nhttp://img688.imageshack.us/img688/4676/jackass3d2010camh264fee.jpg&lt;/a&gt;\n &lt;a href=&quot;\nhttp://img521.imageshack.us/img521/4676/jackass3d2010camh264fee.jpg&quot; rel=&quot;nofollow&quot; target=&quot;_NEW&quot;&gt;\nhttp://img521.imageshack.us/img521/4676/jackass3d2010camh264fee.jpg&lt;/a&gt;\n &lt;a href=&quot;\nhttp://img841.imageshack.us/img841/4676/jackass3d2010camh264fee.jpg&quot; rel=&quot;nofollow&quot; target=&quot;_NEW&quot;&gt;\nhttp://img841.imageshack.us/img841/4676/jackass3d2010camh264fee.jpg&lt;/a&gt;","torrent":{"xt":"urn:btih:5f6ba5b5a0eff29c7a291506706af4dfc81c5905","amp;dn":"Jackass+3D+2010+Cam+H264+Feel-Free+","amp;tr":["udp%3A%2F%2Ftracker.openbittorrent.com%3A80","udp%3A%2F%2Fopen.demonii.com%3A1337","udp%3A%2F%2Ftracker.coppersurfer.tk%3A6969","udp%3A%2F%2Fexodus.desync.com%3A6969"],"infoHash":"5f6ba5b5a0eff29c7a291506706af4dfc81c5905","infoHashBuffer":{"type":"Buffer","data":[95,107,165,181,160,239,242,156,122,41,21,6,112,106,244,223,200,28,89,5]},"announce":[],"urlList":[]}}